# xmcd
# Track frame offsets:
# 150
# 13797
# 26450
# 40387
# 52752
# 67157
# 80837
# 93897
# 107485
# 119040
#
# Disc length: 1739 seconds
# Revision: 0
# Processed by: cddbd v1.4PL0 Copyright (c) Steve Scherf et al.
# Submitted via: VisiTrax 2.9.5.180 - For more info visit www.synapsa.com
#
DISCID=8006c90a
DTITLE=Willie Nelson and Larry Butler - Memories Of Hank Williams Sr.
DYEAR=2000
DGENRE=
TTITLE0=I´m So Lonesome I Could Cry
TTITLE1=Half As Much
TTITLE2=May You Never Be Alone Like Me
TTITLE3=Move It On Over
TTITLE4=Wedding Bells
TTITLE5=You Cheatin´ Hearts
TTITLE6=Cold Cold Heart
TTITLE7=My Sweet Love Ain´t Around
TTITLE8=Hey Good Lookin
TTITLE9=( I Here That ) Lonesome Whistle
EXTD=
EXTT0=
EXTT1=
EXTT2=
EXTT3=
EXTT4=
EXTT5=
EXTT6=
EXTT7=
EXTT8=
EXTT9=
PLAYORDER=
